<svg font-family="'Courier New', monospace" height="250" viewBox="0 0 400 250" width="400" xmlns="http://www.w3.org/2000/svg">
<defs>
<marker id="arrowGreen" markerHeight="6" markerWidth="8" orient="auto" refX="7" refY="3">
<polygon fill="#22c55e" points="0 0, 8 3, 0 6"/>
</marker>
</defs>
<rect fill="#f8fafc" height="250" rx="10" width="400"/>
<text fill="#1e293b" font-size="15" font-weight="700" text-anchor="middle" x="200" y="24">anyio.create_task_group()</text>
<line stroke="#e2e8f0" stroke-width="1" x1="20" x2="380" y1="34" y2="34"/>
<line marker-end="url(#arrowGreen)" stroke="#22c55e" stroke-width="3" x1="200" x2="200" y1="44" y2="58"/>
<rect fill="none" height="150" rx="8" stroke="#22c55e" stroke-width="2.5" width="340" x="30" y="64"/>
<text fill="#14532d" font-size="11" font-weight="600" text-anchor="middle" x="200" y="82">async with create_task_group() as tg:</text>
<line stroke="#22c55e" stroke-width="2" x1="200" x2="200" y1="88" y2="98"/>
<circle cx="200" cy="98" fill="#22c55e" r="3"/>
<line stroke="#22c55e" stroke-width="2" x1="200" x2="90" y1="98" y2="98"/>
<line marker-end="url(#arrowGreen)" stroke="#22c55e" stroke-width="2" x1="90" x2="90" y1="98" y2="158"/>
<line marker-end="url(#arrowGreen)" stroke="#22c55e" stroke-width="2" x1="200" x2="200" y1="98" y2="158"/>
<line stroke="#22c55e" stroke-width="2" x1="200" x2="310" y1="98" y2="98"/>
<line marker-end="url(#arrowGreen)" stroke="#22c55e" stroke-width="2" x1="310" x2="310" y1="98" y2="158"/>
<text fill="#14532d" font-size="11" text-anchor="middle" x="90" y="176">parent</text>
<text fill="#14532d" font-size="11" text-anchor="middle" x="200" y="176">task1</text>
<text fill="#14532d" font-size="11" text-anchor="middle" x="310" y="176">task2</text>
<circle cx="200" cy="192" fill="#22c55e" r="3"/>
<line stroke="#22c55e" stroke-width="2" x1="90" x2="90" y1="182" y2="192"/>
<line stroke="#22c55e" stroke-width="2" x1="90" x2="200" y1="192" y2="192"/>
<line stroke="#22c55e" stroke-width="2" x1="310" x2="310" y1="182" y2="192"/>
<line stroke="#22c55e" stroke-width="2" x1="310" x2="200" y1="192" y2="192"/>
<line marker-end="url(#arrowGreen)" stroke="#22c55e" stroke-width="2" x1="200" x2="200" y1="192" y2="208"/>
<line marker-end="url(#arrowGreen)" stroke="#22c55e" stroke-width="3" x1="200" x2="200" y1="220" y2="242"/>
</svg>
