<svg font-family="'Courier New', monospace" height="160" viewBox="0 0 800 160" width="800" xmlns="http://www.w3.org/2000/svg">
<defs>
<marker id="arrowGreen" markerHeight="6" markerWidth="8" orient="auto" refX="7" refY="3">
<polygon fill="#22c55e" points="0 0, 8 3, 0 6"/>
</marker>
<marker id="arrowAmber" markerHeight="6" markerWidth="8" orient="auto" refX="7" refY="3">
<polygon fill="#b45309" points="0 0, 8 3, 0 6"/>
</marker>
</defs>
<rect fill="#f8fafc" height="160" rx="10" width="800"/>
<text fill="#475569" font-size="14" font-weight="600" text-anchor="middle" x="200" y="20">your code sees</text>
<text fill="#475569" font-size="14" font-weight="600" text-anchor="middle" x="600" y="20">inside the scope</text>
<rect fill="#bbf7d0" height="144" rx="3" width="8" x="396" y="8"/>
<line stroke="#2563eb" stroke-width="2.5" x1="200" x2="200" y1="30" y2="38"/>
<text fill="#2563eb" font-size="12" font-weight="700" text-anchor="middle" x="200" y="52">with CancelScope(shield=True)</text>
<line marker-end="url(#arrowAmber)" stroke="#b45309" stroke-width="2.5" x1="200" x2="200" y1="58" y2="72"/>
<text fill="#b45309" font-size="11" font-weight="600" text-anchor="middle" x="200" y="86">anyio.fail_after cancels</text>
<text fill="#b45309" font-size="10" text-anchor="middle" x="200" y="100">cancel deferred at boundary</text>
<line marker-end="url(#arrowAmber)" stroke="#b45309" stroke-width="2.5" x1="200" x2="200" y1="106" y2="118"/>
<text fill="#b45309" font-size="14" font-weight="700" text-anchor="middle" x="200" y="134">CancelledError</text>
<text fill="#22c55e" font-size="10" font-weight="600" text-anchor="middle" x="200" y="150">re-raised reliably on exit</text>
<line stroke="#22c55e" stroke-width="2.5" x1="600" x2="600" y1="30" y2="38"/>
<text fill="#22c55e" font-size="13" font-weight="600" text-anchor="middle" x="600" y="52">shielded work</text>
<line marker-end="url(#arrowGreen)" stroke="#22c55e" stroke-width="2.5" x1="600" x2="600" y1="58" y2="72"/>
<text fill="#22c55e" font-size="10" x="624" y="68">protected</text>
<text fill="#22c55e" font-size="15" font-weight="700" text-anchor="middle" x="600" y="92">runs to completion</text>
<text fill="#64748b" font-size="10" text-anchor="middle" x="600" y="108">cancel cannot interrupt</text>
<text fill="#64748b" font-size="10" text-anchor="middle" x="600" y="122">cleanup / I/O completes safely</text>
<line marker-end="url(#arrowGreen)" stroke="#22c55e" stroke-width="2.5" x1="600" x2="600" y1="128" y2="152"/>
</svg>
