<svg font-family="'Courier New', monospace" height="200" viewBox="0 0 700 200" width="700" xmlns="http://www.w3.org/2000/svg">
<defs>
<marker id="arrowRed" markerHeight="6" markerWidth="8" orient="auto" refX="7" refY="3">
<polygon fill="#ef4444" points="0 0, 8 3, 0 6"/>
</marker>
<marker id="arrowGrey" markerHeight="6" markerWidth="8" orient="auto" refX="7" refY="3">
<polygon fill="#94a3b8" points="0 0, 8 3, 0 6"/>
</marker>
</defs>
<rect fill="#f8fafc" height="200" rx="10" width="700"/>
<text fill="#475569" font-size="14" font-weight="600" text-anchor="middle" x="175" y="22">your code sees</text>
<text fill="#475569" font-size="14" font-weight="600" text-anchor="middle" x="525" y="22">inside shield()</text>
<rect fill="#fecaca" height="180" rx="3" width="8" x="345" y="10"/>
<line stroke="#2563eb" stroke-width="2.5" x1="175" x2="175" y1="36" y2="48"/>
<text fill="#2563eb" font-size="13" font-weight="700" text-anchor="middle" x="175" y="66">await asyncio.shield(coro)</text>
<line marker-end="url(#arrowRed)" stroke="#ef4444" stroke-width="2.5" x1="175" x2="175" y1="74" y2="96"/>
<text fill="#ef4444" font-size="11" font-weight="600" text-anchor="middle" x="175" y="108">asyncio.timeout cancels</text>
<text fill="#ef4444" font-size="16" font-weight="700" text-anchor="middle" x="175" y="130">CancelledError</text>
<text fill="#64748b" font-size="11" text-anchor="middle" x="175" y="140">edge-triggered: used up</text>
<text fill="#b45309" font-size="11" font-weight="600" text-anchor="middle" x="175" y="158">next await may succeed [!]</text>
<line stroke="#94a3b8" stroke-width="2.5" x1="525" x2="525" y1="36" y2="48"/>
<text fill="#ea580c" font-size="13" font-weight="600" text-anchor="middle" x="525" y="66">cancel NOT forwarded</text>
<line marker-end="url(#arrowGrey)" stroke="#94a3b8" stroke-width="2.5" x1="525" x2="525" y1="74" y2="96"/>
<text fill="#64748b" font-size="11" x="548" y="91">runs on...</text>
<text fill="#ef4444" font-size="16" font-weight="700" text-anchor="middle" x="525" y="118">result lost</text>
<text fill="#64748b" font-size="11" text-anchor="middle" x="525" y="140">no owner, no supervision</text>
<text fill="#64748b" font-size="11" text-anchor="middle" x="525" y="158">cleanup may never run</text>
<line stroke="#ef4444" stroke-dasharray="5,4" stroke-width="2" x1="525" x2="525" y1="166" y2="192"/>
</svg>
